<svg width="33" height="33" viewBox="0 0 33 33" fill="none" xmlns="http://www.w3.org/2000/svg">
<path d="M28.875 6.1875H4.125C3.8515 6.1875 3.58919 6.29615 3.3958 6.48955C3.2024 6.68294 3.09375 6.94525 3.09375 7.21875V24.75C3.09375 25.297 3.31105 25.8216 3.69784 26.2084C4.08464 26.5952 4.60924 26.8125 5.15625 26.8125H27.8438C28.3908 26.8125 28.9154 26.5952 29.3022 26.2084C29.689 25.8216 29.9062 25.297 29.9062 24.75V7.21875C29.9062 6.94525 29.7976 6.68294 29.6042 6.48955C29.4108 6.29615 29.1485 6.1875 28.875 6.1875ZM26.2195 8.25L16.5 17.1574L6.78047 8.25H26.2195ZM27.8438 24.75H5.15625V9.56484L15.8039 19.323C15.994 19.497 16.2423 19.5934 16.5 19.5934C16.7577 19.5934 17.006 19.497 17.1961 19.323L27.8438 9.56484V24.75Z" fill="black"/>
</svg>
